<mxfile host="app.diagrams.net" agent="Mozilla/5.0 (Windows NT 10.0; Win64; x64) AppleWebKit/537.36 (KHTML, like Gecko) Chrome/131.0.0.0 Safari/537.36 Edg/131.0.0.0" version="26.0.1">
  <diagram name="第 1 页" id="Y5imS60aNz2UqjZGpG41">
    <mxGraphModel dx="873" dy="505" grid="1" gridSize="10" guides="1" tooltips="1" connect="1" arrows="1" fold="1" page="1" pageScale="1" pageWidth="827" pageHeight="1169" math="0" shadow="0">
      <root>
        <mxCell id="0" />
        <mxCell id="1" parent="0" />
        <mxCell id="pDlCXlPNkBOMOFqIXInU-1" value="" style="ellipse;whiteSpace=wrap;html=1;aspect=fixed;" vertex="1" parent="1">
          <mxGeometry x="70" y="80" width="15" height="15" as="geometry" />
        </mxCell>
        <mxCell id="pDlCXlPNkBOMOFqIXInU-2" value="" style="ellipse;whiteSpace=wrap;html=1;aspect=fixed;" vertex="1" parent="1">
          <mxGeometry x="70" y="110" width="15" height="15" as="geometry" />
        </mxCell>
        <mxCell id="pDlCXlPNkBOMOFqIXInU-3" value="" style="ellipse;whiteSpace=wrap;html=1;aspect=fixed;" vertex="1" parent="1">
          <mxGeometry x="70" y="140" width="15" height="15" as="geometry" />
        </mxCell>
        <mxCell id="pDlCXlPNkBOMOFqIXInU-4" value="" style="ellipse;whiteSpace=wrap;html=1;aspect=fixed;" vertex="1" parent="1">
          <mxGeometry x="70" y="170" width="15" height="15" as="geometry" />
        </mxCell>
        <mxCell id="pDlCXlPNkBOMOFqIXInU-5" value="" style="ellipse;whiteSpace=wrap;html=1;aspect=fixed;" vertex="1" parent="1">
          <mxGeometry x="70" y="200" width="15" height="15" as="geometry" />
        </mxCell>
        <mxCell id="pDlCXlPNkBOMOFqIXInU-6" value="" style="ellipse;whiteSpace=wrap;html=1;aspect=fixed;" vertex="1" parent="1">
          <mxGeometry x="150" y="111" width="15" height="15" as="geometry" />
        </mxCell>
        <mxCell id="pDlCXlPNkBOMOFqIXInU-7" value="" style="ellipse;whiteSpace=wrap;html=1;aspect=fixed;" vertex="1" parent="1">
          <mxGeometry x="150" y="161" width="15" height="15" as="geometry" />
        </mxCell>
        <mxCell id="pDlCXlPNkBOMOFqIXInU-13" value="" style="endArrow=none;dashed=1;html=1;dashPattern=1 3;strokeWidth=2;rounded=0;fillColor=#d5e8d4;strokeColor=#82b366;exitX=1;exitY=0.5;exitDx=0;exitDy=0;entryX=0;entryY=0.5;entryDx=0;entryDy=0;" edge="1" parent="1" source="pDlCXlPNkBOMOFqIXInU-1" target="pDlCXlPNkBOMOFqIXInU-6">
          <mxGeometry width="50" height="50" relative="1" as="geometry">
            <mxPoint x="120" y="80" as="sourcePoint" />
            <mxPoint x="170" y="30" as="targetPoint" />
          </mxGeometry>
        </mxCell>
        <mxCell id="pDlCXlPNkBOMOFqIXInU-14" value="" style="endArrow=none;dashed=1;html=1;dashPattern=1 3;strokeWidth=2;rounded=0;fillColor=#d5e8d4;strokeColor=#82b366;exitX=1;exitY=0.5;exitDx=0;exitDy=0;" edge="1" parent="1" source="pDlCXlPNkBOMOFqIXInU-2">
          <mxGeometry width="50" height="50" relative="1" as="geometry">
            <mxPoint x="95" y="98" as="sourcePoint" />
            <mxPoint x="150" y="118" as="targetPoint" />
          </mxGeometry>
        </mxCell>
        <mxCell id="pDlCXlPNkBOMOFqIXInU-15" value="" style="endArrow=none;dashed=1;html=1;dashPattern=1 3;strokeWidth=2;rounded=0;fillColor=#d5e8d4;strokeColor=#82b366;exitX=1;exitY=0.5;exitDx=0;exitDy=0;" edge="1" parent="1" source="pDlCXlPNkBOMOFqIXInU-3">
          <mxGeometry width="50" height="50" relative="1" as="geometry">
            <mxPoint x="95" y="128" as="sourcePoint" />
            <mxPoint x="150" y="120" as="targetPoint" />
          </mxGeometry>
        </mxCell>
        <mxCell id="pDlCXlPNkBOMOFqIXInU-16" value="" style="endArrow=none;dashed=1;html=1;dashPattern=1 3;strokeWidth=2;rounded=0;fillColor=#dae8fc;strokeColor=#6c8ebf;entryX=0;entryY=0.5;entryDx=0;entryDy=0;" edge="1" parent="1" target="pDlCXlPNkBOMOFqIXInU-7">
          <mxGeometry width="50" height="50" relative="1" as="geometry">
            <mxPoint x="90" y="150" as="sourcePoint" />
            <mxPoint x="260" y="250" as="targetPoint" />
          </mxGeometry>
        </mxCell>
        <mxCell id="pDlCXlPNkBOMOFqIXInU-17" value="" style="endArrow=none;dashed=1;html=1;dashPattern=1 3;strokeWidth=2;rounded=0;fillColor=#dae8fc;strokeColor=#6c8ebf;exitX=1;exitY=0.5;exitDx=0;exitDy=0;" edge="1" parent="1" source="pDlCXlPNkBOMOFqIXInU-2">
          <mxGeometry width="50" height="50" relative="1" as="geometry">
            <mxPoint x="100" y="160" as="sourcePoint" />
            <mxPoint x="150" y="170" as="targetPoint" />
          </mxGeometry>
        </mxCell>
        <mxCell id="pDlCXlPNkBOMOFqIXInU-18" value="" style="endArrow=none;dashed=1;html=1;dashPattern=1 3;strokeWidth=2;rounded=0;fillColor=#dae8fc;strokeColor=#6c8ebf;exitX=1;exitY=0.5;exitDx=0;exitDy=0;entryX=0;entryY=0.5;entryDx=0;entryDy=0;" edge="1" parent="1" source="pDlCXlPNkBOMOFqIXInU-4" target="pDlCXlPNkBOMOFqIXInU-7">
          <mxGeometry width="50" height="50" relative="1" as="geometry">
            <mxPoint x="95" y="128" as="sourcePoint" />
            <mxPoint x="160" y="180" as="targetPoint" />
          </mxGeometry>
        </mxCell>
        <mxCell id="pDlCXlPNkBOMOFqIXInU-19" value="" style="endArrow=none;dashed=1;html=1;dashPattern=1 3;strokeWidth=2;rounded=0;fillColor=#dae8fc;strokeColor=#6c8ebf;exitX=1;exitY=0.5;exitDx=0;exitDy=0;entryX=0;entryY=0.5;entryDx=0;entryDy=0;" edge="1" parent="1" source="pDlCXlPNkBOMOFqIXInU-5" target="pDlCXlPNkBOMOFqIXInU-7">
          <mxGeometry width="50" height="50" relative="1" as="geometry">
            <mxPoint x="95" y="188" as="sourcePoint" />
            <mxPoint x="160" y="179" as="targetPoint" />
          </mxGeometry>
        </mxCell>
      </root>
    </mxGraphModel>
  </diagram>
</mxfile>
